<svg id="Layer_1" data-name="Layer 1" xmlns="http://www.w3.org/2000/svg" viewBox="0 0 22.5 22.5"><defs><style>.cls-1{fill:#6dccdd;}.cls-2{fill:#fff;}</style></defs><path class="cls-1" d="M12,8.25H1.75c-.19,0-.25,0-.25.24,0,3.74,0,7.49,0,11.23A1.16,1.16,0,0,0,2.8,21H13a1.47,1.47,0,0,1,.21,0,.36.36,0,0,1,.33.36.36.36,0,0,1-.31.38H13c-3.42,0-6.83,0-10.24,0a2,2,0,0,1-2-2c0-4.94,0-9.88,0-14.83A1.87,1.87,0,0,1,2.3,3a1.73,1.73,0,0,1,.32,0H4.29c.16,0,.22,0,.22-.21a3.08,3.08,0,0,1,0-.91,1.5,1.5,0,0,1,3,.35c0,.21,0,.41,0,.61s0,.16.16.16h2.69c.13,0,.15,0,.15-.16a4.41,4.41,0,0,1,0-1,1.5,1.5,0,0,1,3,.35v.63c0,.1,0,.14.13.14h2.74c.13,0,.13-.06.13-.16a4.3,4.3,0,0,1,0-1,1.5,1.5,0,0,1,3,.34,4.87,4.87,0,0,1,0,.54c0,.17,0,.23.23.23.55,0,1.1,0,1.66,0a1.86,1.86,0,0,1,1.86,1.88c0,3.22,0,6.43,0,9.65,0,.31-.13.46-.37.47s-.38-.16-.38-.48c0-2,0-4,0-6,0-.22,0-.29-.27-.28Z" transform="translate(-0.74 -0.75)"/><path class="cls-1" d="M18.4,13.5a4.88,4.88,0,1,1-4.9,4.82A4.87,4.87,0,0,1,18.4,13.5Z" transform="translate(-0.74 -0.75)"/><path class="cls-1" d="M5.24,12.75H4.49A.74.74,0,0,1,3.75,12V10.86a.73.73,0,0,1,.75-.73q.75,0,1.5,0a.72.72,0,0,1,.75.75V12a.74.74,0,0,1-.76.75Z" transform="translate(-0.74 -0.75)"/><path class="cls-1" d="M9.75,12.75H9A.75.75,0,0,1,8.25,12V10.87A.73.73,0,0,1,9,10.13q.75,0,1.5,0a.73.73,0,0,1,.74.74V12a.74.74,0,0,1-.75.74Z" transform="translate(-0.74 -0.75)"/><path class="cls-1" d="M14.24,12.75h-.75a.74.74,0,0,1-.74-.74V10.86a.72.72,0,0,1,.74-.73q.76,0,1.53,0a.73.73,0,0,1,.73.72V12a.74.74,0,0,1-.74.73Z" transform="translate(-0.74 -0.75)"/><path class="cls-1" d="M18.74,12.75H18a.73.73,0,0,1-.74-.74q0-.57,0-1.14a.73.73,0,0,1,.74-.74c.51,0,1,0,1.52,0a.73.73,0,0,1,.74.72V12a.75.75,0,0,1-.73.73Z" transform="translate(-0.74 -0.75)"/><path class="cls-1" d="M5.24,16.12H4.49a.73.73,0,0,1-.74-.74V14.23a.74.74,0,0,1,.73-.73H6a.73.73,0,0,1,.73.73c0,.38,0,.77,0,1.15a.73.73,0,0,1-.74.74Z" transform="translate(-0.74 -0.75)"/><path class="cls-1" d="M9.74,16.12H9a.73.73,0,0,1-.74-.74V14.23A.74.74,0,0,1,9,13.5h1.54a.74.74,0,0,1,.73.73V15.4a.74.74,0,0,1-.71.72Z" transform="translate(-0.74 -0.75)"/><path class="cls-1" d="M5.24,19.5H4.49a.75.75,0,0,1-.74-.75V17.6a.75.75,0,0,1,.73-.73H6a.73.73,0,0,1,.72.74q0,.59,0,1.17A.73.73,0,0,1,6,19.5Z" transform="translate(-0.74 -0.75)"/><path class="cls-1" d="M9.75,19.5H9a.75.75,0,0,1-.75-.74V17.61A.74.74,0,0,1,9,16.87h1.53a.75.75,0,0,1,.73.73v1.17a.75.75,0,0,1-.73.73Z" transform="translate(-0.74 -0.75)"/><path class="cls-1" d="M14.31,14.25h-.65c-.12,0-.17,0-.16.15s0,.56,0,.84c0,.09,0,.12.11.15a.37.37,0,0,1-.16.73.73.73,0,0,1-.7-.68c0-.42,0-.83,0-1.24a.73.73,0,0,1,.71-.7H15a.36.36,0,0,1,.39.37.37.37,0,0,1-.38.38Z" transform="translate(-0.74 -0.75)"/><path class="cls-2" d="M12,7.5H1.74c-.19,0-.24,0-.24-.24,0-.77,0-1.53,0-2.3A1.15,1.15,0,0,1,2.72,3.75H4.31c.17,0,.2,0,.2.21a3.48,3.48,0,0,0,0,.91,1.5,1.5,0,0,0,3-.36c0-.21,0-.42,0-.63s0-.13.13-.13h2.74c.14,0,.13.06.13.16a5,5,0,0,0,0,1,1.5,1.5,0,0,0,3-.34V3.88c0-.09,0-.13.13-.13h2.74c.12,0,.13.06.13.15a4.57,4.57,0,0,0,0,1,1.5,1.5,0,0,0,3-.36V3.91c0-.11,0-.16.14-.16.58,0,1.16,0,1.74,0a1.1,1.1,0,0,1,1.11,1.09c0,.84,0,1.68,0,2.51,0,.11,0,.16-.15.14H12Z" transform="translate(-0.74 -0.75)"/><path class="cls-2" d="M5.25,3.35V2.3A.77.77,0,0,1,6,1.5a.76.76,0,0,1,.75.79c0,.73,0,1.45,0,2.17A.76.76,0,0,1,6,5.25a.77.77,0,0,1-.75-.8Z" transform="translate(-0.74 -0.75)"/><path class="cls-2" d="M11.25,3.38V2.3a.75.75,0,1,1,1.5,0V4.44a.76.76,0,0,1-.75.81.77.77,0,0,1-.75-.82Z" transform="translate(-0.74 -0.75)"/><path class="cls-2" d="M17.25,3.36v-1A.77.77,0,0,1,18,1.5a.78.78,0,0,1,.76.81V4.44a.75.75,0,1,1-1.5,0Z" transform="translate(-0.74 -0.75)"/><path class="cls-2" d="M22.5,18.35a4.13,4.13,0,1,1-4.17-4.1A4.17,4.17,0,0,1,22.5,18.35Z" transform="translate(-0.74 -0.75)"/><path class="cls-2" d="M5.25,10.89c.25,0,.57-.1.7,0s0,.47,0,.72S6,12,5.63,12h-1c-.14,0-.17,0-.17-.17s0-.54,0-.82c0-.11,0-.14.15-.14h.6Z" transform="translate(-0.74 -0.75)"/><path class="cls-2" d="M9.75,10.89c.24,0,.57-.1.7,0s0,.47.05.72,0,.37-.38.37h-1C9,12,9,12,9,11.86q0-.42,0-.84c0-.12,0-.15.14-.15h.61Z" transform="translate(-0.74 -0.75)"/><path class="cls-2" d="M14.25,12h-.61c-.12,0-.15,0-.14-.14,0-.28,0-.57,0-.85,0-.11,0-.14.14-.14.41,0,.81,0,1.22,0,.12,0,.14,0,.14.15q0,.42,0,.84c0,.12,0,.15-.14.14Z" transform="translate(-0.74 -0.75)"/><path class="cls-2" d="M18.75,12c-.24,0-.57.09-.7,0S18,11.5,18,11.25s0-.37.37-.37h1c.11,0,.14,0,.14.15q0,.42,0,.84c0,.11,0,.15-.14.14h-.61Z" transform="translate(-0.74 -0.75)"/><path class="cls-2" d="M5.27,14.25h.58c.13,0,.16,0,.15.16s0,.54,0,.81,0,.16-.16.16q-.6,0-1.2,0c-.13,0-.15-.05-.15-.16,0-.28,0-.55,0-.82s0-.16.16-.15Z" transform="translate(-0.74 -0.75)"/><path class="cls-2" d="M9.74,15.37H9.13c-.11,0-.13,0-.13-.14,0-.29,0-.57,0-.86,0-.11,0-.13.13-.13h1.24c.11,0,.13,0,.13.13v.87c0,.1,0,.13-.13.13Z" transform="translate(-0.74 -0.75)"/><path class="cls-2" d="M5.23,17.62h.63c.12,0,.15,0,.14.15v.84c0,.11,0,.14-.14.14-.41,0-.81,0-1.22,0-.11,0-.14,0-.14-.15q0-.42,0-.84c0-.11,0-.14.15-.14Z" transform="translate(-0.74 -0.75)"/><path class="cls-2" d="M9.76,17.62h.56c.13,0,.19,0,.18.17s0,.53,0,.8-.05.16-.17.16q-.59,0-1.17,0c-.11,0-.17,0-.16-.15s0-.56,0-.84c0-.12,0-.14.15-.14Z" transform="translate(-0.74 -0.75)"/><path class="cls-1" d="M21.18,17.06a.45.45,0,0,1-.16.32q-1.53,1.55-3.08,3.08a.38.38,0,0,1-.64,0c-.49-.49-1-1-1.48-1.48a.39.39,0,0,1-.05-.59c.17-.16.39-.14.6.06l1.12,1.13c.11.12.17.1.27,0l2.72-2.72c.25-.26.56-.21.67.08A.35.35,0,0,1,21.18,17.06Z" transform="translate(-0.74 -0.75)"/></svg>