<svg id="Layer_1" data-name="Layer 1" xmlns="http://www.w3.org/2000/svg" viewBox="0 0 15.1 20"><defs><style>.cls-1{fill:#045679;}.cls-2{fill:#fff;}</style></defs><path class="cls-1" d="M16,20H4a1.51,1.51,0,0,1-1-.38,1.82,1.82,0,0,1-.59-1.36V8.08c0-.44.19-.62.62-.63h.82c.22,0,.24,0,.24-.25V5.82a5.91,5.91,0,0,1,4-5.56A6.79,6.79,0,0,1,10.47,0,5.11,5.11,0,0,1,13,.79a5.82,5.82,0,0,1,2.84,4.27,3.39,3.39,0,0,1,0,.64V7.2c0,.23,0,.25.24.25h.82c.43,0,.62.19.62.63V18.26a1.72,1.72,0,0,1-1,1.62A2.23,2.23,0,0,1,16,20Z" transform="translate(-2.45 0)"/><path class="cls-2" d="M10,7.51H6.86c-.16,0-.19,0-.19-.19,0-.55,0-1.11,0-1.66a3.33,3.33,0,0,1,6.58-.51,3.52,3.52,0,0,1,.07.79c0,.46,0,.91,0,1.37,0,.15,0,.2-.19.2Z" transform="translate(-2.45 0)"/><path class="cls-2" d="M10,16.67H9.26c-.38,0-.54-.21-.5-.58.09-.72.16-1.43.25-2.15a.16.16,0,0,0-.07-.16A1.66,1.66,0,0,1,9.29,11a1.67,1.67,0,0,1,2.36,1.31,1.64,1.64,0,0,1-.59,1.47A.18.18,0,0,0,11,14c.09.71.16,1.43.25,2.15a.46.46,0,0,1-.5.57Z" transform="translate(-2.45 0)"/></svg>