<svg id="Layer_10" data-name="Layer 10" xmlns="http://www.w3.org/2000/svg" viewBox="0 0 19.99 23.99"><defs><style>.cls-1{fill:#f7f7f7;}</style></defs><path class="cls-1" d="M12.23,0a2.24,2.24,0,0,1,.45.27,1.06,1.06,0,0,1,.33.8c0,.28,0,.56,0,.84s0,.18.16.2a6.91,6.91,0,0,1,5.65,5.28A6.55,6.55,0,0,1,19,9.15c0,1,0,2,0,3.07a6.47,6.47,0,0,0,2.18,4.53A2,2,0,0,1,22,18.11a1.76,1.76,0,0,1-1.7,1.9H3.87a1.74,1.74,0,0,1-1.81-1.35,1.69,1.69,0,0,1,.61-1.8,6.4,6.4,0,0,0,1.41-1.7A6.72,6.72,0,0,0,5,11.66c0-1,0-2,0-3.05a6.75,6.75,0,0,1,2.52-5,6.68,6.68,0,0,1,3.27-1.5c.15,0,.2-.09.19-.23s0-.41,0-.61A1.13,1.13,0,0,1,11.77,0Z" transform="translate(-2 0)"/><path class="cls-1" d="M11.48,24a9,9,0,0,1-1-.33,3.75,3.75,0,0,1-2.12-2.49c0-.13,0-.19.14-.19,2.33,0,4.67,0,7,0,.16,0,.17.06.14.19A3.76,3.76,0,0,1,12.54,24s-.06,0-.07.05Z" transform="translate(-2 0)"/></svg>