<svg id="Layer_2" data-name="Layer 2" xmlns="http://www.w3.org/2000/svg" viewBox="0 0 24 24"><defs><style>.cls-1{fill:#015578;}.cls-2{fill:#fefefe;}</style></defs><path class="cls-1" d="M14.39,0h8.15A1.6,1.6,0,0,1,24,1.46V12.61a1.82,1.82,0,0,1-1.88,1.48H14.86a1.87,1.87,0,0,1-1.95-1.95V1.88a1.89,1.89,0,0,1,1-1.74A2.75,2.75,0,0,1,14.39,0Z" transform="translate(0 0)"/><path class="cls-1" d="M0,22.54V11.39A1.82,1.82,0,0,1,1.88,9.91H9.14a1.86,1.86,0,0,1,1.95,1.95V22.12a1.87,1.87,0,0,1-1,1.74,2,2,0,0,1-.54.14H1.46a1.62,1.62,0,0,1-1.28-.84A1.65,1.65,0,0,1,0,22.54Z" transform="translate(0 0)"/><path class="cls-1" d="M9.56,0c0,.09.14.05.21.07A1.78,1.78,0,0,1,11,1.72c0,1.52,0,3.05,0,4.57A1.74,1.74,0,0,1,9.28,8H1.72A1.76,1.76,0,0,1,.08,6.79c0-.06,0-.14-.08-.18V1.46A1.6,1.6,0,0,1,1.46,0Z" transform="translate(0 0)"/><path class="cls-1" d="M14.39,24c-.1-.09-.24-.09-.36-.15a1.7,1.7,0,0,1-1-1.57c0-1.52,0-3,0-4.57A1.75,1.75,0,0,1,14.71,16h7.57A1.74,1.74,0,0,1,24,17.39s0,0,0,.05v5.15A1.65,1.65,0,0,1,22.54,24Z" transform="translate(0 0)"/><path class="cls-2" d="M22.54,24a2,2,0,0,0,1.15-.75,5,5,0,0,0,.31-.66c0,.43,0,.86,0,1.29,0,.1,0,.12-.12.12C23.43,24,23,24,22.54,24Z" transform="translate(0 0)"/><path class="cls-2" d="M1.46,0A2,2,0,0,0,.32.74,2.73,2.73,0,0,0,0,1.46C0,1,0,.57,0,.12,0,0,0,0,.12,0Z" transform="translate(0 0)"/><path class="cls-2" d="M24,1.46A2,2,0,0,0,23.26.32,2.73,2.73,0,0,0,22.54,0h1.34C24,0,24,0,24,.12,24,.57,24,1,24,1.46Z" transform="translate(0 0)"/><path class="cls-2" d="M0,22.54a2,2,0,0,0,.74,1.14,2.73,2.73,0,0,0,.72.32C1,24,.57,24,.12,24,0,24,0,24,0,23.88,0,23.43,0,23,0,22.54Z" transform="translate(0 0)"/></svg>