<svg id="Layer_11" data-name="Layer 11" xmlns="http://www.w3.org/2000/svg" viewBox="0 0 24 24"><defs><style>.cls-1{fill:#f2f2f3;}.cls-2{fill:#f4f4f4;}.cls-3{fill:#f4f4f3;}.cls-4{fill:#f5f4f4;}</style></defs><path class="cls-1" d="M24,6.2a.72.72,0,0,1-.7.47.63.63,0,0,1-.61-.51,1.34,1.34,0,0,1,0-.35V2.36c-.11,0-.15.1-.21.16L17.21,7.75A.74.74,0,0,1,16.5,8a.66.66,0,0,1-.34-1.1c.12-.14.26-.27.39-.4l4.93-4.93.21-.15a.39.39,0,0,0-.28,0H18.16a1.08,1.08,0,0,1-.43-.07.62.62,0,0,1-.4-.53.63.63,0,0,1,.3-.64L17.8,0h5.71A.6.6,0,0,1,24,.49Z" transform="translate(0)"/><path class="cls-1" d="M17.8,24a.72.72,0,0,1-.47-.7.63.63,0,0,1,.51-.61,1.34,1.34,0,0,1,.35,0h3.45c0-.1-.1-.14-.16-.2l-5.21-5.21a.71.71,0,0,1-.26-.68.67.67,0,0,1,1.06-.41l.24.23,5.11,5.11.2.23c0-.15,0-.23,0-.31,0-1.1,0-2.2,0-3.3,0-.52.33-.83.8-.75.28,0,.41.24.54.46v5.71a.6.6,0,0,1-.47.47Z" transform="translate(0)"/><path class="cls-1" d="M6.2,0a.72.72,0,0,1,.47.7.63.63,0,0,1-.51.61,1.34,1.34,0,0,1-.35,0H2.36c0,.1.11.14.16.2L7.71,6.76A.72.72,0,0,1,8,7.48a.66.66,0,0,1-1,.41,2.05,2.05,0,0,1-.23-.2L1.6,2.55a2.11,2.11,0,0,1-.17-.22l-.06,0c0,.08,0,.16,0,.24,0,1.1,0,2.2,0,3.3a.68.68,0,0,1-.78.76A.79.79,0,0,1,0,6.2V.49A.6.6,0,0,1,.49,0Z" transform="translate(0)"/><path class="cls-1" d="M0,17.8a.72.72,0,0,1,.7-.47.62.62,0,0,1,.61.51,1.34,1.34,0,0,1,0,.35v3.45c.11,0,.15-.1.21-.16l5.19-5.19a.72.72,0,0,1,.7-.28.67.67,0,0,1,.41,1.06l-.19.2L2.54,22.41a1.53,1.53,0,0,1-.23.17.45.45,0,0,0,.28.05H6a.69.69,0,0,1,.65.54.67.67,0,0,1-.42.75l0,.05H.49A.6.6,0,0,1,0,23.51Z" transform="translate(0)"/><path class="cls-2" d="M.49,0A1.18,1.18,0,0,0,0,.49C0,.33,0,.12,0,0S.33,0,.49,0Z" transform="translate(0)"/><path class="cls-3" d="M24,.49A1.18,1.18,0,0,0,23.51,0c.16,0,.37-.06.45,0S24,.33,24,.49Z" transform="translate(0)"/><path class="cls-4" d="M0,23.51A1.18,1.18,0,0,0,.49,24C.33,24,.12,24,0,24S0,23.67,0,23.51Z" transform="translate(0)"/><path class="cls-4" d="M23.51,24a1.18,1.18,0,0,0,.47-.47c0,.16.06.37,0,.45S23.67,24,23.51,24Z" transform="translate(0)"/></svg>