<svg id="Layer_13" data-name="Layer 13" xmlns="http://www.w3.org/2000/svg" viewBox="0 0 48 48"><defs><style>.cls-1{fill:#6dccdd;}.cls-2{fill:#403e3d;}.cls-3{fill:#373534;}.cls-4{fill:#2e2d2d;}.cls-5{fill:#fff;}</style></defs><path class="cls-1" d="M22,0h3.75c.82.11,1.64.08,2.45.23a24.28,24.28,0,0,1,17.32,12.9,23,23,0,0,1,2.34,7.42c.07.52,0,1.05.11,1.58v.46a.71.71,0,0,0,0,.57v1.68a.71.71,0,0,0,0,.57V26c-.11.75-.09,1.51-.23,2.26a24.31,24.31,0,0,1-12.9,17.33,23.26,23.26,0,0,1-7.42,2.33c-.55.07-1.12,0-1.67.11h-.65a.49.49,0,0,0-.47,0H23.34a.68.68,0,0,0-.56,0H22c-.87-.11-1.76-.13-2.63-.3a24.58,24.58,0,0,1-5-1.54,23.1,23.1,0,0,1-5.66-3.44,24.43,24.43,0,0,1-6.08-7.4A23.53,23.53,0,0,1,.13,27.54C.06,27,.1,26.49,0,26v-.66a.68.68,0,0,0,0-.56v-1.5a.68.68,0,0,0,0-.56V22c.09-.49.05-1,.11-1.48a23.39,23.39,0,0,1,1.8-6.28,24.16,24.16,0,0,1,6-8.19,23.52,23.52,0,0,1,5-3.47A24.59,24.59,0,0,1,20,.2C20.64.07,21.34.12,22,0Z" transform="translate(0)"/><path class="cls-2" d="M48,23.16a.44.44,0,0,1,0-.57Z" transform="translate(0)"/><path class="cls-3" d="M0,22.69a.43.43,0,0,1,0,.56Z" transform="translate(0)"/><path class="cls-3" d="M0,24.75a.43.43,0,0,1,0,.56Z" transform="translate(0)"/><path class="cls-2" d="M48,25.41a.44.44,0,0,1,0-.57Z" transform="translate(0)"/><path class="cls-4" d="M22.78,48a.41.41,0,0,1,.56,0Z" transform="translate(0)"/><path class="cls-4" d="M24.66,48a.32.32,0,0,1,.47,0Z" transform="translate(0)"/><path class="cls-5" d="M11.41,24a10.92,10.92,0,0,0,9.33,10.81A10.64,10.64,0,0,0,29.91,32a1.7,1.7,0,0,1,.84-.55,1.14,1.14,0,0,1,1.19.57,1.11,1.11,0,0,1-.26,1.37,13,13,0,0,1-4.19,2.83A13.19,13.19,0,1,1,19.66,11.1a12.81,12.81,0,0,1,12,3.5,1.12,1.12,0,0,1,.15,1.66,1.15,1.15,0,0,1-1.7-.06,10.51,10.51,0,0,0-5.85-3,10.68,10.68,0,0,0-10.31,3.84A10.43,10.43,0,0,0,11.41,24Z" transform="translate(0)"/><path class="cls-5" d="M35,25.13H22.35a1.12,1.12,0,0,1,0-2.24H35c-.69-.7-1.31-1.32-1.94-1.93a1.15,1.15,0,0,1-.42-1,1.05,1.05,0,0,1,.68-.93,1,1,0,0,1,1.17.22c.55.51,1.07,1.05,1.6,1.58.75.75,1.51,1.5,2.25,2.25a1.14,1.14,0,0,1,0,1.83c-1.24,1.25-2.47,2.48-3.72,3.72a1.11,1.11,0,0,1-1.69.08,1.13,1.13,0,0,1,.12-1.66C33.7,26.43,34.32,25.82,35,25.13Z" transform="translate(0)"/></svg>