<svg id="Layer_2" data-name="Layer 2" xmlns="http://www.w3.org/2000/svg" viewBox="0 0 47.99 47.99"><defs><style>.cls-1{fill:#6dccdd;}</style></defs><path class="cls-1" d="M28.78,0H45.09A3.19,3.19,0,0,1,48,2.91V25.22a3.63,3.63,0,0,1-3.75,3c-4.84,0-9.68,0-14.52,0a3.74,3.74,0,0,1-3.9-3.9q0-10.26,0-20.52a3.74,3.74,0,0,1,2-3.48A4.92,4.92,0,0,1,28.78,0Z" transform="translate(-0.01 -0.01)"/><path class="cls-1" d="M0,45.09V22.78a3.65,3.65,0,0,1,3.75-3c4.84,0,9.68,0,14.52,0a3.73,3.73,0,0,1,3.9,3.9q0,10.26,0,20.52a3.75,3.75,0,0,1-2,3.48,4.54,4.54,0,0,1-1.07.27H2.91A3.2,3.2,0,0,1,.36,46.33,3.44,3.44,0,0,1,0,45.09Z" transform="translate(-0.01 -0.01)"/><path class="cls-1" d="M19.13,0c.09.17.27.09.41.14A3.5,3.5,0,0,1,22,3.44c0,3.05,0,6.09,0,9.13A3.47,3.47,0,0,1,18.57,16c-5.05,0-10.09,0-15.13,0A3.48,3.48,0,0,1,.17,13.58c-.05-.12,0-.29-.16-.36V2.91A3.19,3.19,0,0,1,2.91,0Z" transform="translate(-0.01 -0.01)"/><path class="cls-1" d="M28.78,48a2.94,2.94,0,0,0-.71-.29A3.41,3.41,0,0,1,26,44.56c0-3,0-6.09,0-9.13A3.47,3.47,0,0,1,29.43,32c5,0,10.09,0,15.13,0a3.44,3.44,0,0,1,3.35,2.79s.06.06.08.09V45.18A3.23,3.23,0,0,1,45.09,48Z" transform="translate(-0.01 -0.01)"/></svg>