<svg id="Layer_9" data-name="Layer 9" xmlns="http://www.w3.org/2000/svg" viewBox="0 0 48 46.43"><defs><style>.cls-1{fill:#6dccdd;}</style></defs><path class="cls-1" d="M24.86,41.59v-.53q0-8,0-16a.72.72,0,0,1,.43-.74q7-4.05,13.92-8.12c.37-.21.57-.26.56.26,0,.29,0,.57,0,.86,0,4.51,0,9,0,13.55a3.63,3.63,0,0,1-2,3.47C33.86,36.54,30,38.8,26,41.05A4.08,4.08,0,0,1,24.86,41.59Z" transform="translate(0 -0.78)"/><path class="cls-1" d="M23.12,41.56a2.07,2.07,0,0,1-.93-.38L9.91,34A3.21,3.21,0,0,1,8.2,31q0-7.05,0-14.08c0-1.13,0-1.13,1-.57l13.57,8a.58.58,0,0,1,.37.56q0,8.25,0,16.49A1.28,1.28,0,0,1,23.12,41.56Z" transform="translate(0 -0.78)"/><path class="cls-1" d="M9.32,14.43c4.4-2.6,8.74-5.17,13.08-7.72a3,3,0,0,1,3.11,0q6.52,3.84,13,7.72l.16.15-1.41.83L24.44,22.85c-.26.15-.46.26-.77.07Q16.62,18.75,9.55,14.6Z" transform="translate(0 -0.78)"/><path class="cls-1" d="M0,9.21V4.45A3.36,3.36,0,0,1,3.39.83C6.17.75,9,.8,11.73.81a.89.89,0,0,1,1,.9.93.93,0,0,1-1,.85c-2.68,0-5.35,0-8,0a1.88,1.88,0,0,0-1.95,2c0,3.3,0,6.6,0,9.9a.91.91,0,0,1-.5.92.8.8,0,0,1-.9-.12.92.92,0,0,1-.32-.8C0,12.67,0,10.94,0,9.21Z" transform="translate(0 -0.78)"/><path class="cls-1" d="M48,9.23v5.14c0,.64-.36,1.06-.89,1s-.83-.42-.83-1c0-3.27,0-6.53,0-9.8a1.89,1.89,0,0,0-2-2c-2.66.06-5.32,0-8,0a.93.93,0,0,1-1-.86c0-.5.37-.86,1-.9.12,0,.25,0,.37,0h7.5a8.08,8.08,0,0,1,.85,0,3.39,3.39,0,0,1,3,3.34C48,5.87,48,7.55,48,9.23Z" transform="translate(0 -0.78)"/><path class="cls-1" d="M48,38.78v4.76a3.42,3.42,0,0,1-3.54,3.65c-2.71,0-5.42,0-8.13,0-.65,0-1.06-.38-1-.9s.43-.86,1.08-.86h8a1.73,1.73,0,0,0,1.94-1.94c0-3.3,0-6.6,0-9.9a.91.91,0,0,1,.49-.92.78.78,0,0,1,.9.1.91.91,0,0,1,.33.81C48,35.32,48,37.05,48,38.78Z" transform="translate(0 -0.78)"/><path class="cls-1" d="M1.72,38.62c0,1.64,0,3.28,0,4.93A1.72,1.72,0,0,0,3.6,45.44h7.87a1.74,1.74,0,0,1,.68.08.81.81,0,0,1,.54.84.78.78,0,0,1-.62.78,2.33,2.33,0,0,1-.53.06H3.68A3.48,3.48,0,0,1,.06,44.43a3.21,3.21,0,0,1,0-.69C0,40.38,0,37,0,33.67c0-.66.32-1.07.85-1.08s.87.41.87,1.11Z" transform="translate(0 -0.78)"/></svg>