<svg id="Layer_8" data-name="Layer 8" xmlns="http://www.w3.org/2000/svg" viewBox="0 0 47.64 47.62"><defs><style>.cls-1{fill:#6dccdd;}.cls-2{fill:#fff;}</style></defs><path class="cls-1" d="M24,.2c4.33,0,8.65,0,13,0A10.87,10.87,0,0,1,47.81,11.07c0,5.74,0,11.49,0,17.23A10.86,10.86,0,0,1,38.94,39a12,12,0,0,1-2.32.18H25.22a1.71,1.71,0,0,0-1,.31L12.37,47.35a2.18,2.18,0,0,1-3-.34,2.44,2.44,0,0,1-.49-1.65c0-2,0-4,0-5.94,0-.37-.11-.5-.46-.6A10.66,10.66,0,0,1,.31,29.89a8.89,8.89,0,0,1-.12-1.71q0-8.49,0-17A10.86,10.86,0,0,1,8.83.43,11.46,11.46,0,0,1,11.24.19Z" transform="translate(-0.18 -0.19)"/><path class="cls-2" d="M24,7.94A6,6,0,0,1,29.7,12a5.93,5.93,0,0,1-2,6.62A4,4,0,0,0,26,22.27a17.81,17.81,0,0,1,0,1.79,2,2,0,0,1-4,0,19.59,19.59,0,0,1,.15-4,7.21,7.21,0,0,1,2.9-4.41A2,2,0,0,0,26,13.52,1.94,1.94,0,0,0,24.46,12,2,2,0,0,0,22,13.61a7.83,7.83,0,0,1-.15,1,2,2,0,0,1-2.3,1.33A2,2,0,0,1,18,13.86,6,6,0,0,1,24,7.94Z" transform="translate(-0.18 -0.19)"/><path class="cls-2" d="M24,32a2,2,0,1,1,2-2A2,2,0,0,1,24,32Z" transform="translate(-0.18 -0.19)"/></svg>