<?xml version="1.0" encoding="utf-8"?>
<!-- Generator: Adobe Illustrator 23.0.3, SVG Export Plug-In . SVG Version: 6.00 Build 0)  -->
<svg version="1.1" id="Layer_1" xmlns="http://www.w3.org/2000/svg" xmlns:xlink="http://www.w3.org/1999/xlink" x="0px" y="0px"
	 viewBox="0 0 24.72 26.38" style="enable-background:new 0 0 24.72 26.38;" xml:space="preserve">
<style type="text/css">
	.st0{fill:#D30909;}
</style>
<g>
	<g>
		<g>
			<g>
				<polygon class="st0" points="17.16,9.28 15.19,9.21 14.76,20.88 16.73,20.95 				"/>
				<rect x="11.38" y="9.25" class="st0" width="1.97" height="11.67"/>
				<polygon class="st0" points="9.96,20.88 9.53,9.21 7.56,9.28 7.99,20.95 				"/>
				<path class="st0" d="M0.63,4.38v1.97h2.06l1.63,18.53c0.04,0.51,0.47,0.9,0.98,0.9h14.1c0.51,0,0.94-0.39,0.98-0.9l1.63-18.53
					h2.09V4.38H0.63z M18.49,23.81H6.2L4.66,6.35h15.37L18.49,23.81z"/>
			</g>
		</g>
	</g>
	<g>
		<g>
			<path class="st0" d="M15.58,0.6H9.14C8.23,0.6,7.5,1.34,7.5,2.24v3.12h1.97V2.57h5.79v2.79h1.97V2.24
				C17.23,1.34,16.49,0.6,15.58,0.6z"/>
		</g>
	</g>
</g>
<g>
</g>
<g>
</g>
<g>
</g>
<g>
</g>
<g>
</g>
<g>
</g>
<g>
</g>
<g>
</g>
<g>
</g>
<g>
</g>
<g>
</g>
<g>
</g>
<g>
</g>
<g>
</g>
<g>
</g>
</svg>
