<?xml version="1.0" encoding="utf-8"?>
<!-- Generator: Adobe Illustrator 23.0.3, SVG Export Plug-In . SVG Version: 6.00 Build 0)  -->
<svg version="1.1" id="Layer_1" xmlns="http://www.w3.org/2000/svg" xmlns:xlink="http://www.w3.org/1999/xlink" x="0px" y="0px"
	 viewBox="0 0 60 60" style="enable-background:new 0 0 60 60;" xml:space="preserve">
<style type="text/css">
	.st0{fill:#EFDC2E;}
</style>
<g>
	<path class="st0" d="M36.09,6.76c-1.94-3.36-6.24-4.51-9.6-2.57c-1.07,0.62-1.96,1.5-2.57,2.57L1.13,46.21
		c-1.94,3.36-0.79,7.66,2.57,9.6c1.07,0.62,2.28,0.94,3.51,0.94h45.56c3.88,0,7.03-3.15,7.03-7.03c0-1.23-0.32-2.45-0.94-3.51
		L36.09,6.76z M55.42,51.26c-0.54,0.95-1.55,1.53-2.64,1.53H7.22c-1.69,0-3.05-1.37-3.05-3.05c0-0.54,0.14-1.06,0.41-1.52
		L27.36,8.75c0.84-1.46,2.71-1.96,4.17-1.12c0.46,0.27,0.85,0.65,1.12,1.12L55.42,48.2C55.98,49.15,55.98,50.31,55.42,51.26z"/>
	<path class="st0" d="M30,17.21c-1.6,0-2.88,1.05-2.84,2.32l0.7,20.8c0.03,0.92,0.98,1.66,2.14,1.66s2.11-0.73,2.14-1.66l0.7-20.8
		C32.88,18.25,31.6,17.21,30,17.21z"/>
	<path class="st0" d="M30,44.81c-1.17,0-2.12,0.95-2.12,2.12c0,1.17,0.95,2.12,2.12,2.12c1.17,0,2.12-0.95,2.12-2.12v0
		C32.12,45.75,31.17,44.81,30,44.81C30,44.81,30,44.81,30,44.81z"/>
</g>
</svg>
